<?xml version="1.0" encoding="utf-8"?>
<svg width='500' height='200' viewBox="0 0 500 200" xmlns="http://www.w3.org/2000/svg">
  <path d="M 0 0 L 500 0 L 500 200 L 0 200 Z M 485.77 152.754 L 459.828 152.754 L 459.828 15.023 L 429.556 15.023 L 429.556 182.942 L 485.77 182.942 Z M 238.412 99.062 L 238.412 45.052 C 238.449 45.052 238.505 45.046 238.565 45.046 C 240.945 45.028 258.768 45.76 258.768 71.755 C 258.768 85.353 252.708 93.929 245.584 97.371 C 243.24 98.494 240.8 99.056 238.412 99.062 Z M 165.263 58.724 L 173.953 130.526 L 156.876 130.526 Z M 424.283 15.047 L 338.577 15.047 L 324.467 117.329 L 310.527 15.047 L 279.619 15.047 L 283.073 42.359 C 279.51 35.359 266.862 15.047 239.012 15.047 C 238.827 15.035 208.067 15.047 208.067 15.047 L 207.939 164.131 L 185.416 15.047 L 144.932 15.035 L 121.628 169.502 L 121.641 15.047 L 82.889 15.047 L 68.924 101.815 L 55.32 15.047 L 16.562 15.047 L 16.562 182.979 L 47.085 182.979 L 47.085 102.035 L 60.971 182.979 L 77.195 182.979 L 90.885 102.035 L 90.885 182.979 L 149.723 182.979 L 153.281 157.149 L 176.969 157.149 L 180.527 182.979 L 238.298 183.016 L 238.34 183.016 L 238.34 182.979 L 238.412 182.979 L 238.412 128.475 L 245.486 127.451 L 260.147 183.016 L 290.03 183.016 L 290.018 182.979 L 290.103 182.979 L 270.865 117.869 C 280.606 110.69 291.617 92.49 288.687 75.071 L 288.687 75.065 C 288.723 75.291 306.851 183.091 306.851 183.091 L 342.385 182.981 L 366.664 30.778 L 366.664 182.981 L 424.281 182.981 L 424.281 152.782 L 396.937 152.782 L 396.937 114.275 L 424.281 114.275 L 424.281 83.615 L 396.937 83.615 L 396.937 45.675 L 424.283 45.675 Z"/>
</svg>